<svg xmlns="http://www.w3.org/2000/svg" width="294" height="185" fill="none">
  <path stroke="#0094F3" stroke-width="20" d="m79 94 67-83H52L12 59v5l57 58h20l89-110 3-1h47l55 58c1 2 1 4-1 6l-54 47H124l74-92"/>
  <path fill="#0094F3" d="M81 161h-7v-2l-1-1-1-1h-2l-2 1-2 2-1 3 1 4 2 2 2 1h2l1-1 1-1v-1h7l-1 3a10 10 0 0 1-5 5h-5l-6-1-4-4-1-7 1-6 4-4 6-2 4 1 3 2 3 3 1 4Zm8 14h-3l-2-2-1-3v-2l2-2 2-1h2l3-1h1v-2h-3l-1 1h-5a6 6 0 0 1 3-5l5-1 3 1 2 1 2 2 1 2v12h-6v-2l-2 1-1 1h-2Zm2-4h1l1-1v-3a8 8 0 0 1-1 1h-2l-1 1v2h2Zm12 4v-17h6v3l1-3 3-1h1v6h-4l-1 1v11h-6Zm13 0v-17h6v3h1a5 5 0 0 1 5-4l3 1 1 3h1l1-3 4-1 4 2 1 4v12h-6v-12l-2-1-1 1-1 2v10h-6v-10l-1-2-1-1-1 1-1 1v11h-7Zm39 0-5-1-3-3-1-5 1-4 3-3 5-2 5 2 3 3 1 4-1 5-3 3-5 1Zm0-4 1-1 1-1 1-3-1-2-1-2h-2l-1 2-1 2 1 3 1 1 1 1Zm15 4a3 3 0 0 1-3-3l1-2 2-1 2 1a3 3 0 0 1 1 4l-1 1h-2Zm15 0h-9v-23h9l7 1 4 4 1 6-1 7-4 4-7 1Zm-2-5h2l3-1 2-2 1-4-1-3-2-2-3-1h-2v13Zm25 5-4-1c-2 0-3-1-4-3l-1-5 1-4c1-2 2-3 4-3l4-2 4 1a8 8 0 0 1 4 5l1 3v2h-16v-4h10v-1l-1-1h-3l-1 1v7l1 1h3l1-1v-1h6a7 7 0 0 1-4 6h-5Zm29-17-6 17h-7l-6-17h6l3 11 3-11h7Z"/>
</svg>
